<?xml version="1.0" standalone="no"?>
<!DOCTYPE svg PUBLIC "-//W3C//DTD SVG 20010904//EN"
 "http://www.w3.org/TR/2001/REC-SVG-20010904/DTD/svg10.dtd">
<svg version="1.0" xmlns="http://www.w3.org/2000/svg"
 width="260.000000pt" height="260.000000pt" viewBox="0 0 260.000000 260.000000"
 preserveAspectRatio="xMidYMid meet">
<metadata>
Created by potrace 1.14, written by Peter Selinger 2001-2017
</metadata>
<g transform="translate(0.000000,260.000000) scale(0.100000,-0.100000)"
fill="#000000" stroke="none">
<path d="M1160 2564 c-562 -72 -997 -471 -1116 -1024 -26 -119 -26 -381 0
-500 61 -283 201 -523 414 -713 62 -55 166 -128 227 -160 l30 -15 90 345 c83
321 91 344 110 339 102 -25 181 -31 395 -30 179 0 254 4 314 17 44 9 80 16 81
14 1 -1 41 -156 90 -344 l88 -342 31 16 c62 32 165 105 228 160 213 190 353
430 414 713 26 119 26 381 0 500 -109 507 -483 886 -986 1001 -83 19 -331 33
-410 23z m282 -705 c131 -27 249 -113 333 -239 34 -52 51 -70 68 -70 41 0 247
-77 296 -110 220 -150 22 -314 -469 -387 -162 -24 -578 -24 -740 0 -350 52
-560 152 -560 266 0 35 36 83 91 121 49 33 256 110 297 110 16 0 33 17 66 68
80 125 188 206 314 236 70 17 232 20 304 5z"/>
<path d="M1150 1479 c-177 -14 -354 -69 -400 -123 -16 -20 -16 -62 0 -82 27
-31 100 -65 195 -89 377 -96 957 -3 917 147 -8 30 -77 76 -151 99 -146 45
-369 64 -561 48z"/>
<path d="M685 1442 c-80 -38 -129 -93 -121 -135 17 -84 156 -150 411 -194 141
-24 509 -24 650 0 141 25 240 53 306 88 69 37 97 65 105 106 5 25 0 37 -27 67
-30 35 -94 74 -146 90 -20 6 -21 5 -14 -21 5 -15 27 -47 50 -69 52 -53 52 -76
2 -125 -154 -146 -785 -180 -1104 -59 -67 25 -137 86 -137 120 0 13 17 39 41
63 22 22 43 53 46 69 3 15 4 28 2 28 -2 0 -31 -13 -64 -28z"/>
</g>
</svg>
